    <svg
        width="24"
        height="24"
        viewBox="0 0 24 24"
        class="group-hover:text-blue-600"
        fill="currentColor"
        xmlns="http://www.w3.org/2000/svg"
    >
        <path fill="#fff" d="M0 0h24v24H0z"></path>
        <path
            clipRule="evenodd"
            d="M8 4V3a1 1 0 012 0v1h4V3a1 1 0 112 0v1h2a3 3 0 013 3v11a3 3 0 01-3 3H6a3 3 0 01-3-3v-7h16V7a1 1 0 00-1-1h-2v2a1 1 0 11-2 0V6h-4v2a1 1 0 01-2 0V6H6a1 1 0 00-1 1v1a1 1 0 01-2 0V7a3 3 0 013-3h2zm11 9H5v5a1 1 0 001 1h12a1 1 0 001-1v-5z"
        ></path>
    </svg>
