    <svg
        width="25"
        height="24"

        viewBox="0 0 25 24"
        fill="currentColor"
        xmlns="http://www.w3.org/2000/svg"
    >
        <path
            d="M12.28 4.504c.758 1.365 1.22 3.182 1.22 5.58a1 1 0 01-1.46.888c-2.302-1.19-4.194-1.148-5.447-.484-1.233.654-2.093 2.04-2.093 4.096 0 2.028.857 3.595 2.25 4.68C8.167 20.364 10.186 21 12.5 21s4.333-.635 5.75-1.737c1.393-1.084 2.25-2.65 2.25-4.68 0-2.01-.833-3.11-1.709-3.74C17.855 10.17 16.814 10 16.5 10a1 1 0 110-2c.686 0 2.145.275 3.459 1.22 1.374.988 2.541 2.68 2.541 5.364 0 2.666-1.158 4.807-3.022 6.258C17.638 22.273 15.157 23 12.5 23s-5.137-.726-6.978-2.159C3.658 19.392 2.5 17.25 2.5 14.585c0-2.639 1.14-4.794 3.157-5.863 1.614-.855 3.626-.929 5.762-.19-.146-1.329-.478-2.319-.887-3.058-.551-.993-1.27-1.585-1.983-1.945a5.42 5.42 0 00-2.074-.548c.013.138.033.285.065.436.143.668.489 1.318 1.331 1.656a1 1 0 01-.742 1.857c-1.658-.663-2.27-2.012-2.502-3.094a5.898 5.898 0 01-.096-1.808c.049-.465.207-.964 1.223-1.015.226-.012.541-.015.916.012.746.055 1.756.2 2.781.72 1.038.524 2.068 1.386 2.83 2.76z"
        ></path>
        <path
            d="M7.947 12.106a1 1 0 01.447 1.341C7.781 14.674 8.618 17 11.5 17a1 1 0 110 2c-4.118 0-6.281-3.674-4.894-6.447a1 1 0 011.341-.447z"
        ></path>
    </svg>
