    <svg
        width="24"
        height="24"
        viewBox="0 0 24 24"
        class="group group-hover:text-blue-600"
        fill="currentColor"
        xmlns="http://www.w3.org/2000/svg"
    >
        <path fill="#fff" d="M0 0h24v24H0z"></path>
        <path
            d="M10.833 9a1 1 0 100 2V9zm2.334 2a1 1 0 100-2v2zM14 16a1 1 0 102 0h-2zm1-2h1v-1h-1v1zM5 14H4v1h1v-1zm1 4a1 1 0 10-2 0h2zM8 6a1 1 0 002 0H8zm6 0a1 1 0 102 0h-2zM9 5a1 1 0 000 2V5zm6 2a1 1 0 100-2v2zm-4.167 4h2.334V9h-2.334v2zM16 16v-2h-2v2h2zm-1-3H5v2h10v-2zm-9 1v-4H4v4h2zm0-4a3 3 0 013-3V5a5 5 0 00-5 5h2zm-2 8v1.75h2V18H4zm0 1.75a3 3 0 003 3v-2a1 1 0 01-1-1H4zm3 3h.333v-2H7v2zm.333 0h9.334v-2H7.333v2zm9.334 0H17v-2h-.333v2zm.333 0a3 3 0 003-3h-2a1 1 0 01-1 1v2zm3-3V14h-2v5.75h2zM20 14v-4h-2v4h2zm0-4a5 5 0 00-5-5v2a3 3 0 013 3h2zM10 6V4H8v2h2zm0-2a1 1 0 011-1V1a3 3 0 00-3 3h2zm1-1h2V1h-2v2zm2 0a1 1 0 011 1h2a3 3 0 00-3-3v2zm1 1v2h2V4h-2zM9 7h6V5H9v2z"
        ></path>
    </svg>
