    <svg
        fill="currentColor"
        xmlns="http://www.w3.org/2000/svg"
        enable-background="new 0 0 64 64"
        viewBox="5 0 55 55"
        width="30"
        height="24"
    >
        <path
            d="M58,63.5H6c-0.5,0-1-0.4-1-1V47.2c0-4.1,2.4-7.8,6.2-9.5C15,36,18.8,34.8,22.5,34c0.4-0.1,0.9,0.1,1.1,0.5L32,52.3
				l8.4-17.7c0.2-0.4,0.6-0.6,1.1-0.5c3.7,0.8,7.5,2,11.3,3.7c3.8,1.7,6.2,5.4,6.2,9.5v15.3C59,63.1,58.5,63.5,58,63.5z M6.9,61.6
				h50.1V47.2c0-3.3-2-6.4-5.1-7.8c-3.4-1.5-6.8-2.7-10.1-3.4l-9,18.8c-0.2,0.3-0.5,0.5-0.9,0.5c-0.4,0-0.7-0.2-0.9-0.5l-9-18.8
				c-3.3,0.7-6.8,1.9-10.1,3.4c-3.1,1.4-5.1,4.4-5.1,7.8V61.6z"
        ></path>
        <path
            d="M34.2,39.8h-4.5c-0.4,0-0.8-0.3-0.9-0.7l-1-4.2c-0.1-0.3,0-0.6,0.2-0.8c0.2-0.2,0.5-0.4,0.8-0.4h6.5
				c0.3,0,0.6,0.1,0.8,0.4c0.2,0.2,0.2,0.5,0.2,0.8l-1,4.2C35.1,39.5,34.7,39.8,34.2,39.8z M30.5,37.9h3l0.6-2.3h-4.1L30.5,37.9z"
        ></path>
        <path
            d="M35.4 48.3c-.5 0-.9-.4-1-.9L33.3 39c-.1-.5.3-1 .8-1.1.5-.1 1 .3 1.1.8l1.2 8.4c0 0 0 .1 0 .1C36.4 47.8 36 48.3 35.4 48.3zM28.6 48.3c-.5 0-1-.4-1-1v0c0 0 0-.1 0-.1l1.2-8.4c.1-.5.6-.9 1.1-.8.5.1.9.6.8 1.1l-1.2 8.4C29.5 47.9 29.1 48.3 28.6 48.3zM48.4 63.5c-.5 0-1-.4-1-1V51c0-.5.4-1 1-1 .5 0 1 .4 1 1v11.6C49.4 63.1 48.9 63.5 48.4 63.5zM15.6 63.5c-.5 0-1-.4-1-1V51c0-.5.4-1 1-1 .5 0 1 .4 1 1v11.6C16.5 63.1 16.1 63.5 15.6 63.5z"
        ></path>
        <g>
            <path
                d="M32,31.9c-6.6,0-13-8.9-13-18.1c0-8.1,5.1-13.4,13-13.4c7.9,0,13,5.2,13,13.4C45,23,38.6,31.9,32,31.9z M32,2.4
				c-5.4,0-11.1,3-11.1,11.4c0,8,5.6,16.2,11.1,16.2c5.5,0,11.1-8.2,11.1-16.2C43.1,5.4,37.4,2.4,32,2.4z"
            ></path>
            <path
                d="M35.7,13.2c-1.7,0-3.2-0.3-4.5-1c-1.3-0.6-2.2-1.5-2.8-2.1c-1.7,1.9-4.8,3.3-8.5,2.8c-0.5-0.1-0.9-0.5-0.8-1.1
				c0.1-0.5,0.6-0.9,1.1-0.8c3.8,0.5,6.6-1.4,7.4-3c0.2-0.3,0.5-0.5,0.9-0.5c0.4,0,0.7,0.2,0.9,0.6c0.1,0.3,3.2,6.3,13.9,1.3
				c0.5-0.2,1,0,1.3,0.5c0.2,0.5,0,1-0.5,1.3C41,12.5,38.2,13.2,35.7,13.2z"
            ></path>
        </g>
    </svg>
