    <svg
        width="24px"
        height="24px"
        class="group-hover:text-blue-600"
        fill="currentColor"
        viewBox="0 0 48 48"
        xmlns="http://www.w3.org/2000/svg"
    >
        <g id="Avatar-doctor-health-hospital-medical">
            <polygon points="33 6 31 6 31 8 29 8 29 10 31 10 31 12 33 12 33 10 35 10 35 8 33 8 33 6" />
            <path
                d="M44,41H38V36.21A11,11,0,0,0,43,27V25h1a3.009,3.009,0,0,0,3-3V20a3.009,3.009,0,0,0-3-3H43V16h1a1,1,0,0,0,1-1V7a5,5,0,0,0-5-5H24a5,5,0,0,0-5,5v8a1,1,0,0,0,1,1h1v1H20a3.009,3.009,0,0,0-3,3v2a3.009,3.009,0,0,0,3,3h1v2a11,11,0,0,0,5,9.21V41H20A11.007,11.007,0,0,0,9,52v9a1,1,0,0,0,1,1H54a1,1,0,0,0,1-1V52A11.007,11.007,0,0,0,44,41ZM21,23H20a1,1,0,0,1-1-1V20a1,1,0,0,1,1-1h1Zm20-1.41-1.36,1.36-7.52-.94a.964.964,0,0,0-.24,0l-7.52.94L23,21.59V16H41ZM44,19a1,1,0,0,1,1,1v2a1,1,0,0,1-1,1H43V19ZM21,7a3.009,3.009,0,0,1,3-3H40a3.009,3.009,0,0,1,3,3v7H21Zm2,20V24.41l.29.3a.992.992,0,0,0,.83.28L32,24.01l7.88.98A.487.487,0,0,0,40,25a1.007,1.007,0,0,0,.71-.29l.29-.3V27a9,9,0,0,1-4.9,8H36v.05a8.9,8.9,0,0,1-8,0V35h-.1A9,9,0,0,1,23,27Zm8,33H11V52a9.014,9.014,0,0,1,9-9h3v5.14a4,4,0,1,0,2,0V43h1.19c.57,1.53,2.43,2.69,4.81,2.94ZM24,50a2,2,0,1,1-2,2A2.006,2.006,0,0,1,24,50Zm4-8V37.24a10.906,10.906,0,0,0,8,0V42c0,.94-1.71,2-4,2S28,42.94,28,42ZM44,60H38V53h6Zm9,0H46V52a1,1,0,0,0-1-1H37a1,1,0,0,0-1,1v8H33V45.94c2.38-.25,4.24-1.41,4.81-2.94H44a9.014,9.014,0,0,1,9,9Z"
            />
            <path d="M28,21a1,1,0,0,0,1-1V19a1,1,0,0,0-2,0v1A1,1,0,0,0,28,21Z" />
            <path d="M36,21a1,1,0,0,0,1-1V19a1,1,0,0,0-2,0v1A1,1,0,0,0,36,21Z" />
        </g>
    </svg>
