<svg width="24" height="24" viewBox="0 0 24 24" fill="none" xmlns="http://www.w3.org/2000/svg">
    <path
        fillRule="evenodd"
        clipRule="evenodd"
        d="M15.764 17.834a1 1 0 00-1.414.024A59.41 59.41 0 0112 20.143C7.142 15.64 5.5 13.043 5.5 10a6.5 6.5 0 0113 0c0 1.472-.36 2.76-1.179 4.149a1 1 0 001.723 1.015c.998-1.693 1.456-3.33 1.456-5.164a8.5 8.5 0 00-17 0c0 3.904 2.065 7.003 7.828 12.24l.672.611.673-.611a67.199 67.199 0 003.116-2.992 1 1 0 00-.025-1.414zM16.5 10c0-2.476-2.024-4.5-4.5-4.5A4.512 4.512 0 007.5 10c0 2.476 2.024 4.5 4.5 4.5s4.5-2.024 4.5-4.5z"
        fill="currentColor"></path>
    <circle cx="12" cy="10" r="2" fill="#005BFF"></circle>
</svg>
