    <svg
        width="24"
        height="24"
        class="group group-hover:text-blue-600"
        fill="currentColor"
        id="Capa_1"
        enable-background="new 0 0 512 512"
        viewBox="0 0 512 512"
        xmlns="http://www.w3.org/2000/svg"
    >
        <path
            d="m107.405 396.606h106.014v29.962h-106.014z"
            transform="matrix(.909 -.418 .418 .909 -157.194 104.565)"
        ></path>
        <path
            d="m328.604 358.58h29.962v106.015h-29.962z"
            transform="matrix(.418 -.909 .909 .418 -173.864 551.95)"
        ></path>
        <path
            d="m422.148 367.923-83.363-40.682c17.578-19.654 28.283-45.578 28.283-73.959l-.116-116.087 52.99-81.825-162.381-55.37-166.969 55.328 54.348 81.01-.006 116.943c0 28.381 10.705 54.304 28.283 73.959l-83.354 40.679c-29.054 13.681-47.821 43.253-47.821 75.373v68.708h427.918v-68.707c-.001-32.117-18.765-61.687-47.812-75.37zm-166.147-33.536c-44.721 0-81.105-36.383-81.105-81.105v-24.792c11.086 7.69 24.502 12.205 38.95 12.205h83.987c14.59 0 28.124-4.608 39.273-12.436v25.023c0 44.721-36.384 81.105-81.105 81.105zm80.734-163.398-.004.343c0 21.726-17.45 39.402-38.898 39.402h-83.987c-21.447 0-38.896-17.675-38.896-39.422l-.034-24.56h162.373zm-79.311-139.379 116.486 39.72-29.439 45.459h-176.567l-30.47-45.418zm-185.421 411.683c0-20.594 12.047-39.552 30.69-48.298l95.775-46.738c11.992 7.291 25.468 12.369 39.857 14.68v119.101h-166.322zm367.994 38.745h-171.709v-118.372c16.416-1.815 31.768-7.215 45.244-15.409l95.568 46.638.208.099c18.643 8.746 30.688 27.704 30.688 48.298v38.746z"
        ></path>
        <path d="m241.02 62.441h29.962v30.272h-29.962z"></path>
    </svg>
