<svg width="38" height="38" viewBox="0 0 38 38" fill="none" xmlns="http://www.w3.org/2000/svg">
    <path fillRule="evenodd" clipRule="evenodd" d="M0 34a4 4 0 004 4h30a4 4 0 004-4V4a4 4 0 00-4-4H4a4 4 0 00-4 4v30z"></path>
    <path
        fillRule="evenodd"
        clipRule="evenodd"
        d="M27.794 21.44c-1.88-1.744-1.628-1.462.636-4.479 1.38-1.837 1.93-2.96 1.758-3.44-.165-.459-1.178-.338-1.178-.338l-3.375.023s-.25-.035-.436.075c-.18.11-.299.362-.299.362s-.534 1.422-1.246 2.633c-1.503 2.552-2.103 2.686-2.349 2.526-.572-.369-.429-1.482-.429-2.273 0-2.474.376-3.505-.73-3.772-.367-.088-.637-.146-1.576-.156-1.204-.014-2.222.003-2.799.285-.384.19-.68.609-.5.632.223.03.728.136.996.5.345.471.334 1.527.334 1.527s.198 2.912-.464 3.274c-.455.248-1.079-.258-2.419-2.573-.687-1.186-1.205-2.497-1.205-2.497s-.1-.245-.279-.377c-.215-.16-.517-.208-.517-.208l-3.208.02s-.482.014-.658.223c-.158.185-.013.572-.013.572s2.511 5.873 5.354 8.834c2.607 2.715 5.568 2.536 5.568 2.536h1.341s.405-.046.612-.268c.19-.204.185-.588.185-.588s-.027-1.801.808-2.066c.824-.261 1.882 1.74 3.003 2.509.848.581 1.491.454 1.491.454l2.998-.041s1.568-.096.825-1.33c-.06-.1-.434-.911-2.229-2.578z"
        fill="#fff"></path>
</svg>
